<svg id="Layer_1" data-name="Layer 1" xmlns="http://www.w3.org/2000/svg" xmlns:xlink="http://www.w3.org/1999/xlink" viewBox="0 0 741 201"><defs><style>.cls-1{fill:#007ac2;}.cls-2{fill:url(#linear-gradient);}.cls-3{fill:#009d57;}.cls-4{fill:url(#linear-gradient-2);}.cls-5{fill:url(#linear-gradient-3);}</style><linearGradient id="linear-gradient" x1="130.69" y1="41.52" x2="22.42" y2="149.79" gradientUnits="userSpaceOnUse"><stop offset="0" stop-color="#27aae1"/><stop offset="0.36" stop-color="#84d5f7"/><stop offset="0.71" stop-color="#8dc63f"/><stop offset="0.79" stop-color="#73c142"/><stop offset="1" stop-color="#39b54a"/></linearGradient><linearGradient id="linear-gradient-2" x1="-567.75" y1="81.42" x2="-546.23" y2="102.95" gradientTransform="matrix(-1, 0, 0, 1, -473.47, 0)" gradientUnits="userSpaceOnUse"><stop offset="0" stop-color="#fff"/><stop offset="0.63" stop-color="#ddedc4"/><stop offset="1" stop-color="#cce3a5"/></linearGradient><linearGradient id="linear-gradient-3" x1="71.04" y1="10.42" x2="137" y2="124.67" gradientUnits="userSpaceOnUse"><stop offset="0" stop-color="#70bedf"/><stop offset="0.7" stop-color="#d3ebf5"/><stop offset="1" stop-color="#fff"/></linearGradient></defs><title>Artboard 4</title><path class="cls-1" d="M219,157.59c-1.33,1.59-2.41,3.06-3.67,4.35-5.1,5.24-10.65,4.8-15-1.13-.7-1-1.36-1.94-2.2-3.14-3.82,5.53-8.82,8.42-15.52,7.71a4.65,4.65,0,0,1-1.73-.6c2.14-.54,1.65-2.13,1.65-3.47,0-3.54,0-7.07,0-10.61,0-1.11.41-2.52-1.66-2.21.89-1.45,6.29-1.26,9.54,0a17.64,17.64,0,0,1,7.73,6.51c.82-1.07,1.54-2,2.29-3,3-3.79,6.86-5.27,10.49-4a14.47,14.47,0,0,1,6.11,4.6c.6.72,1.17,1.45,1.87,2.33,2.89-3.65,5.56-7.46,10.63-7.39s7.75,3.78,10.67,7.46c3.23-6,8.15-8.66,14.68-8.31a6,6,0,0,1,2.4.84c-1.72.39-1.46,1.6-1.46,2.67v12.34c0,1-.11,2,1.38,2.13l0,.39a6.64,6.64,0,0,1-1.34.55c-6.09,1-10.68-1.42-14.29-6.15-.4-.53-.78-1.07-1.3-1.79a17.7,17.7,0,0,1-1.89,2.42,32.65,32.65,0,0,1-5.3,4.5c-3.26,1.92-6.93,1-10.11-2.11a40,40,0,0,1-3.07-3.77C219.62,158.42,219.35,158.05,219,157.59Zm12.39-1c0-2.15-.06-4.3,0-6.44.05-1.34-.66-1.46-1.7-1.44s-1.78-.06-1.76,1.35c.06,4.35,0,8.69,0,13,0,1.34.72,1.43,1.74,1.42s1.75-.17,1.71-1.48C231.35,160.9,231.4,158.75,231.4,156.6Zm-24.66,0c0,2.15,0,4.3,0,6.44,0,1,.35,1.5,1.41,1.45s2,0,2-1.39c0-4.39,0-8.78,0-13.17,0-1.45-1-1.17-1.92-1.23s-1.52.17-1.49,1.32C206.79,152.24,206.74,154.44,206.74,156.63Zm45.34-.37c0,2.44,0,4.87,0,7.31,0,1,.42,1.43,1.34,1.36s1.79,0,1.79-1.29c0-4.87,0-9.75,0-14.62,0-1.16-.74-1.32-1.61-1.31s-1.55.22-1.51,1.38C252.13,151.48,252.08,153.87,252.08,156.26Zm-68.85.07c0,2.25,0,4.49,0,6.73,0,1.16.52,1.47,1.58,1.46s1.56-.33,1.55-1.49q-.06-6.59,0-13.17c0-1.2-.55-1.41-1.58-1.43s-1.58.31-1.55,1.46C183.27,152,183.23,154.18,183.23,156.33Zm68,.06c0-2.34,0-4.68,0-7a1.44,1.44,0,0,0-.56-1.12,2,2,0,0,0-2.53,1.84c0,3,0,5.92,0,8.89,0,1.34-.07,2.68,0,4s1.35,1.36,2.28,1.46c1.09.11.79-.87.8-1.46C251.22,160.79,251.2,158.59,251.19,156.39Zm-63.84-7.52V164c2.73-.22,3-.46,3-3v-9.31C190.3,149.31,190,149,187.35,148.87Zm23.5.51c0,4.7,0,9.21,0,13.73,0,.16.48.46.7.44a3.75,3.75,0,0,0,2.6-3c0-2.44,0-4.87,0-7.31S213.6,150.18,210.85,149.38Zm16.13,0c-2,.2-3,1.2-3,3q0,4,0,8c0,1.94.82,2.87,3,3.34Zm-21.23.08c-2.13.36-3,1.37-3,3.3q0,3.79,0,7.59c0,1.85.94,2.91,3,3.35Zm26.64.05v14.07c2.09-.38,3-1.42,3-3.31V153C235.42,150.89,234.67,150,232.39,149.52ZM247.14,163V149.54c-2.18.7-2.67,1.28-2.69,3.19,0,2.24,0,4.48,0,6.72S244.83,162.06,247.14,163Zm-56-.39c2.46-.84,2.95-1.49,2.95-3.65,0-1.91,0-3.82,0-5.73a2.81,2.81,0,0,0-2.95-2.83ZM223,152.43l-.45-.21c-.88,1.17-1.76,2.33-2.61,3.51-.13.17-.24.52-.15.66.9,1.44,1.85,2.86,2.78,4.28l.43-.25Zm13.9.08-.4.25v7.64l.37.14c.84-1.19,1.7-2.36,2.5-3.58a1.05,1.05,0,0,0,0-.93C238.57,154.83,237.7,153.68,236.86,152.51Zm-21.68,7.58.43.17c.79-1.17,1.6-2.32,2.36-3.5a.93.93,0,0,0,.12-.79c-.8-1.18-1.66-2.31-2.51-3.46l-.4.22Zm-13.44-7.44c-3.21,2.2-3.17,5.85,0,7.55Zm41.86.11-.61-.25c-.67,1.32-1.8,2.61-1.86,4s1.05,2.5,2.47,3.47ZM195,159.57c3.1-2.74,3.23-3.57,0-6.47Z"/><path class="cls-1" d="M288,157.31c-1.33,1.68-2.42,3.23-3.69,4.6-5.14,5.55-10.74,5.08-15.09-1.21-.7-1-1.37-2-2.22-3.31-3.85,5.84-8.89,8.91-15.64,8.16a4.48,4.48,0,0,1-1.74-.64c2.16-.58,1.66-2.25,1.66-3.67,0-3.74,0-7.49,0-11.23,0-1.18.41-2.67-1.68-2.34.9-1.53,6.34-1.34,9.62,0s5.64,3.79,7.79,6.89c.82-1.13,1.55-2.16,2.31-3.17,3-4,6.92-5.58,10.57-4.19a14.69,14.69,0,0,1,6.16,4.87c.6.76,1.18,1.54,1.89,2.47,2.91-3.87,5.6-7.9,10.71-7.82s7.81,4,10.76,7.89c3.26-6.36,8.22-9.17,14.79-8.79a5.7,5.7,0,0,1,2.42.89c-1.73.41-1.47,1.68-1.47,2.83v13.05c0,1-.11,2.1,1.39,2.25l0,.42a6.11,6.11,0,0,1-1.35.58c-6.14,1.11-10.77-1.5-14.4-6.51-.41-.56-.79-1.13-1.31-1.89a19.82,19.82,0,0,1-1.91,2.56,33.3,33.3,0,0,1-5.34,4.77c-3.28,2-7,1.09-10.19-2.24a43.26,43.26,0,0,1-3.09-4C288.66,158.18,288.38,157.79,288,157.31Zm12.5-1.06c0-2.27-.06-4.55,0-6.82.05-1.41-.67-1.54-1.71-1.52s-1.8-.06-1.78,1.44c.06,4.59.05,9.19,0,13.79,0,1.41.73,1.51,1.75,1.5s1.77-.18,1.73-1.57C300.48,160.8,300.53,158.53,300.53,156.25Zm-24.86,0c0,2.27,0,4.54,0,6.82,0,1.09.35,1.58,1.42,1.53s2,.05,2-1.48q0-7,0-13.94c0-1.53-1-1.24-1.93-1.3s-1.53.18-1.5,1.4C275.72,151.64,275.67,154,275.67,156.29Zm45.7-.4c0,2.58,0,5.16,0,7.74,0,1.07.43,1.51,1.36,1.44s1.8,0,1.79-1.37q0-7.72,0-15.47c0-1.22-.75-1.4-1.63-1.39s-1.56.23-1.52,1.47C321.42,150.83,321.37,153.36,321.37,155.89ZM252,156c0,2.37,0,4.75,0,7.12,0,1.23.53,1.56,1.6,1.55s1.57-.35,1.56-1.58q-.06-7,0-13.94c0-1.27-.56-1.5-1.59-1.51s-1.6.33-1.57,1.54C252,151.42,252,153.7,252,156Zm68.5.06c0-2.48,0-5,0-7.43a1.56,1.56,0,0,0-.56-1.19,2,2,0,0,0-2.56,2c0,3.13,0,6.27,0,9.41,0,1.42-.07,2.84,0,4.25s1.36,1.44,2.3,1.54c1.1.12.8-.92.81-1.54C320.5,160.69,320.48,158.36,320.48,156Zm-64.36-8v16.05c2.76-.24,3-.49,3-3.18,0-3.28,0-6.57,0-9.85C259.1,148.54,258.78,148.2,256.12,148.07Zm23.69.55c0,5,0,9.74,0,14.52,0,.17.48.49.7.47a3.92,3.92,0,0,0,2.62-3.19c0-2.57,0-5.15,0-7.73S282.59,149.46,279.81,148.62Zm16.26,0c-2.05.21-3,1.27-3.05,3.2v8.48c0,2,.83,3,3.05,3.53Zm-21.4.09c-2.15.38-3.05,1.45-3.06,3.49v8c0,2,.95,3.08,3.06,3.55Zm26.86,0v14.89c2.1-.4,3-1.5,3.05-3.5v-7.72C304.58,150.21,303.82,149.28,301.53,148.76ZM316.39,163V148.78c-2.19.74-2.69,1.36-2.71,3.37,0,2.38,0,4.75,0,7.12C313.68,161.49,314.06,162,316.39,163Zm-56.46-.42c2.47-.88,3-1.57,3-3.86,0-2,0-4,0-6.07a2.91,2.91,0,0,0-3-3ZM292,151.83l-.46-.21c-.88,1.23-1.77,2.46-2.63,3.71a.89.89,0,0,0-.15.7c.91,1.53,1.87,3,2.81,4.53l.43-.26Zm14,.09-.4.27v8.08l.37.15c.84-1.26,1.71-2.5,2.52-3.79a1.16,1.16,0,0,0,0-1C307.75,154.38,306.88,153.16,306,151.92Zm-21.85,8,.43.17c.8-1.23,1.61-2.45,2.38-3.7a1,1,0,0,0,.12-.84c-.81-1.24-1.68-2.44-2.53-3.66l-.4.23Zm-13.55-7.88c-3.24,2.33-3.2,6.2,0,8Zm42.19.11-.61-.25c-.67,1.39-1.81,2.75-1.88,4.18s1.06,2.64,2.49,3.67Zm-49,7.22c3.12-2.9,3.25-3.78,0-6.85Z"/><path class="cls-1" d="M357,157.23c-1.33,1.78-2.4,3.43-3.66,4.87-5.11,5.88-10.66,5.39-15-1.27-.69-1.07-1.36-2.17-2.19-3.51-3.83,6.19-8.83,9.43-15.53,8.64a4.14,4.14,0,0,1-1.72-.68c2.14-.6,1.64-2.38,1.65-3.88,0-4,0-7.93,0-11.9,0-1.24.41-2.83-1.67-2.47.9-1.63,6.29-1.42,9.54,0s5.6,4,7.73,7.3c.82-1.21,1.55-2.3,2.29-3.37,3-4.25,6.87-5.9,10.49-4.43a14.72,14.72,0,0,1,6.11,5.16c.6.81,1.18,1.63,1.88,2.61,2.89-4.09,5.55-8.36,10.63-8.28s7.74,4.23,10.66,8.36c3.24-6.74,8.16-9.71,14.68-9.31a5.44,5.44,0,0,1,2.4.94c-1.72.44-1.46,1.79-1.46,3q0,6.9,0,13.82c0,1.09-.1,2.22,1.38,2.39l0,.44a6,6,0,0,1-1.34.61c-6.09,1.18-10.68-1.59-14.28-6.89-.4-.59-.78-1.2-1.3-2a22.35,22.35,0,0,1-1.89,2.71,33.93,33.93,0,0,1-5.3,5c-3.26,2.15-6.93,1.16-10.12-2.36a47,47,0,0,1-3.06-4.23C357.62,158.16,357.35,157.74,357,157.23Zm12.4-1.11c0-2.41-.06-4.82,0-7.22.05-1.5-.67-1.64-1.7-1.61s-1.78-.07-1.76,1.51c.06,4.87.05,9.74,0,14.61,0,1.49.73,1.6,1.75,1.59s1.75-.2,1.71-1.66C369.35,160.93,369.4,158.52,369.4,156.12Zm-24.67,0c0,2.41,0,4.82,0,7.22,0,1.16.35,1.68,1.41,1.62s2,.06,2-1.56q0-7.38,0-14.76c0-1.62-1-1.31-1.91-1.38s-1.53.19-1.49,1.48C344.78,151.23,344.73,153.69,344.73,156.15Zm45.34-.41c0,2.73,0,5.46,0,8.19,0,1.13.42,1.6,1.34,1.52s1.79,0,1.78-1.44q0-8.2,0-16.39c0-1.3-.75-1.48-1.62-1.47s-1.54.24-1.51,1.55C390.12,150.38,390.07,153.06,390.07,155.74Zm-68.84.08c0,2.51,0,5,0,7.54,0,1.29.51,1.65,1.58,1.63s1.56-.36,1.55-1.66c0-4.92-.05-9.85,0-14.77,0-1.34-.56-1.58-1.58-1.6s-1.58.35-1.56,1.63C321.26,151,321.23,153.41,321.23,155.82Zm68,.06c0-2.62,0-5.25,0-7.87,0-.44-.25-1.12-.55-1.25-1.12-.52-2.53.67-2.54,2.05,0,3.33,0,6.65,0,10,0,1.5-.06,3,0,4.5s1.35,1.52,2.28,1.63c1.09.13.79-1,.8-1.63C389.21,160.81,389.19,158.35,389.19,155.88Zm-63.85-8.43v17c2.73-.24,3-.51,3-3.36V150.65C328.3,148,328,147.59,325.34,147.45Zm23.51.58c0,5.26,0,10.32,0,15.38,0,.18.47.52.7.5,1.13-.15,2.59-2.08,2.59-3.38q0-4.09,0-8.19C352.18,149.73,351.6,148.92,348.85,148ZM365,148a3,3,0,0,0-3,3.39v9c0,2.17.82,3.22,3,3.74Zm-21.24.1c-2.13.4-3,1.53-3,3.69v8.51a3.45,3.45,0,0,0,3,3.75Zm26.65.05V164a3.33,3.33,0,0,0,3-3.7q0-4.09,0-8.18C373.41,149.71,372.67,148.73,370.39,148.18Zm14.74,15.11V148.21c-2.17.77-2.66,1.43-2.68,3.56,0,2.52,0,5,0,7.55C382.45,161.66,382.82,162.24,385.13,163.29Zm-56-.44c2.45-.94,2.94-1.66,2.95-4.09,0-2.14,0-4.28,0-6.42a3,3,0,0,0-2.94-3.17ZM361,151.44l-.46-.23c-.87,1.31-1.76,2.61-2.61,3.93a1,1,0,0,0-.14.74c.9,1.62,1.84,3.2,2.78,4.8l.43-.28Zm13.89.09-.39.28v8.57l.36.15c.84-1.33,1.7-2.65,2.5-4a1.3,1.3,0,0,0,0-1C376.56,154.13,375.7,152.84,374.85,151.53ZM353.17,160l.43.18c.79-1.3,1.6-2.59,2.37-3.92a1.12,1.12,0,0,0,.11-.88c-.8-1.32-1.66-2.59-2.5-3.88l-.41.24Zm-13.44-8.34c-3.2,2.46-3.16,6.56,0,8.47Zm41.86.12-.61-.28c-.66,1.48-1.79,2.93-1.86,4.43s1.05,2.8,2.47,3.89ZM333,159.44c3.1-3.06,3.23-4,0-7.25Z"/><path class="cls-1" d="M426,156.91c-1.34,1.88-2.43,3.62-3.69,5.15-5.15,6.23-10.74,5.7-15.1-1.34-.7-1.14-1.37-2.3-2.21-3.72-3.86,6.55-8.9,10-15.65,9.15a4.33,4.33,0,0,1-1.74-.72c2.16-.64,1.66-2.52,1.67-4.11q0-6.3,0-12.6c0-1.31.41-3-1.68-2.61.9-1.72,6.34-1.5,9.62,0s5.63,4.24,7.79,7.73c.82-1.28,1.55-2.43,2.3-3.57,3-4.5,6.92-6.25,10.58-4.68a14.94,14.94,0,0,1,6.15,5.46c.61.85,1.19,1.72,1.9,2.76,2.91-4.34,5.6-8.85,10.71-8.77s7.81,4.48,10.75,8.85c3.26-7.13,8.22-10.28,14.8-9.85a5.29,5.29,0,0,1,2.41,1c-1.73.47-1.47,1.89-1.47,3.17q0,7.32,0,14.64c0,1.15-.1,2.34,1.39,2.52l0,.47a6.43,6.43,0,0,1-1.35.65c-6.14,1.24-10.76-1.68-14.4-7.3-.4-.63-.78-1.27-1.3-2.12a23.41,23.41,0,0,1-1.91,2.87c-1.72,1.87-3.36,4-5.34,5.34-3.29,2.28-7,1.23-10.2-2.5a48.54,48.54,0,0,1-3.09-4.48C426.65,157.89,426.38,157.45,426,156.91Zm12.49-1.18c0-2.55-.06-5.1,0-7.65.06-1.58-.67-1.73-1.71-1.7s-1.79-.07-1.77,1.6c.06,5.16.05,10.31,0,15.46,0,1.59.73,1.7,1.76,1.69s1.77-.21,1.72-1.76C438.47,160.83,438.52,158.28,438.52,155.73Zm-24.86,0c0,2.54,0,5.09,0,7.64,0,1.23.35,1.77,1.42,1.71s2,.06,2-1.65q0-7.82,0-15.62c0-1.72-1.05-1.39-1.93-1.46s-1.54.2-1.5,1.56C413.71,150.55,413.66,153.16,413.66,155.77Zm45.7-.45c0,2.89,0,5.79,0,8.68,0,1.2.42,1.69,1.35,1.61s1.8,0,1.8-1.53c0-5.78,0-11.56,0-17.35,0-1.37-.75-1.56-1.63-1.55s-1.55.26-1.52,1.64C459.42,149.65,459.36,152.49,459.36,155.32Zm-69.39.09c0,2.66,0,5.32,0,8,0,1.36.52,1.74,1.59,1.72s1.58-.39,1.57-1.76q-.08-7.81,0-15.63c0-1.42-.56-1.68-1.6-1.7s-1.59.38-1.56,1.74C390,150.31,390,152.86,390,155.41Zm68.5.07c0-2.78,0-5.56,0-8.34,0-.46-.26-1.18-.56-1.32-1.13-.54-2.55.71-2.56,2.18,0,3.51,0,7,0,10.55,0,1.59-.07,3.18,0,4.76s1.36,1.61,2.29,1.73c1.1.13.8-1,.81-1.73C458.5,160.7,458.48,158.09,458.47,155.48Zm-64.35-8.92v18c2.75-.26,3-.54,3-3.56v-11C397.1,147.08,396.78,146.7,394.12,146.56Zm23.69.61c0,5.56,0,10.92,0,16.28,0,.19.48.55.71.52,1.13-.15,2.61-2.19,2.61-3.57q0-4.34,0-8.67C421.16,149,420.58,148.11,417.81,147.17Zm16.26,0c-2.05.23-3.05,1.42-3.05,3.58q0,4.75,0,9.51c0,2.3.83,3.41,3.05,4Zm-21.4.1c-2.15.43-3.06,1.62-3.06,3.91v9a3.62,3.62,0,0,0,3.06,4Zm26.85.06V164c2.11-.44,3.05-1.68,3.05-3.92,0-2.89,0-5.77,0-8.66C442.57,149,441.82,147.91,439.52,147.33Zm14.86,16v-16c-2.19.83-2.68,1.52-2.7,3.78,0,2.66,0,5.32,0,8C451.67,161.6,452.05,162.21,454.38,163.32Zm-56.46-.46c2.48-1,3-1.77,3-4.33,0-2.27,0-4.54,0-6.8a3.09,3.09,0,0,0-3-3.36ZM430,150.77l-.46-.24c-.88,1.39-1.77,2.76-2.63,4.17a1,1,0,0,0-.15.78c.91,1.71,1.86,3.39,2.8,5.07l.44-.29Zm14,.1-.39.3v9.07l.36.16c.85-1.41,1.72-2.8,2.52-4.25a1.41,1.41,0,0,0,0-1.1C445.75,153.63,444.87,152.26,444,150.87Zm-21.85,9,.43.19c.8-1.38,1.61-2.75,2.39-4.15a1.25,1.25,0,0,0,.11-.93c-.8-1.4-1.67-2.74-2.52-4.11l-.41.26ZM408.62,151c-3.23,2.61-3.19,6.94,0,9Zm42.19.13-.61-.29c-.67,1.56-1.81,3.09-1.87,4.68s1.06,3,2.48,4.12Zm-49,8.08c3.12-3.25,3.25-4.24,0-7.68Z"/><circle class="cls-2" cx="76.56" cy="95.65" r="76.56"/><path class="cls-1" d="M180.63,136.85V53.38h21q10.78,0,16.86,5.51t6.08,16.52a19.42,19.42,0,0,1-3.16,11A16.74,16.74,0,0,1,213,93.09a16.19,16.19,0,0,1,10.44,7.1,23.26,23.26,0,0,1,3.95,13.46q0,11.23-6,17.22t-16.32,6Zm6.88-46h16.28q6.48-.18,10.15-4.17t3.67-11.46q0-7.81-4.1-11.77t-11.9-4h-14.1Zm0,5.84V131h17.54q7.29,0,11.39-4.52t4.09-12.68q0-7.61-3.64-12.37t-10.75-4.78Z"/><path class="cls-1" d="M248.81,137.14h-5.28V73.55h5.28Z"/><path class="cls-1" d="M301.26,114.3q0,11.57-5.39,17.67t-14.78,6.09q-9.22,0-14.48-6.09t-5.27-17.67V96.48q0-11.58,5.25-17.71T281,72.63q9.39,0,14.81,6.16t5.41,17.69Zm-5.19-18q0-9.43-3.89-14.2T281,77.39q-7,0-10.79,4.76t-3.75,14.2v18q0,9.57,3.75,14.32t10.84,4.76q7.25,0,11.11-4.76t3.87-14.32Z"/><path class="cls-3" d="M398.21,109.23H376.85v18H402v9.91H364.41V73.55h37.47v9.91h-25V99.32h21.36Z"/><path class="cls-3" d="M448.31,116.66l.13.26q.09,10.49-5,15.81t-14.94,5.33q-9.87,0-15.77-6.05t-5.89-17.14v-19q0-11.06,5.7-17.14t15.26-6.1q10.14,0,15.31,5.42t5.35,16l-.13.26h-12q.27-6.27-1.7-9t-6.86-2.76a7.29,7.29,0,0,0-6.42,3.28q-2.22,3.27-2.22,9.92v19.1q0,6.74,2.38,10a8.05,8.05,0,0,0,7,3.27q4.5,0,6.27-2.59c1.18-1.74,1.69-4.7,1.55-8.89Z"/><path class="cls-3" d="M500.54,137.14h-12.4V110.8H468.4v26.34H456V73.55H468.4v27.34h19.74V73.55h12.4Z"/><path class="cls-1" d="M563.74,101.31q2-12.56,9.06-20.1a22.56,22.56,0,0,1,17.09-7.54q9.51,0,14.39,7.86t3,19.78l-1.44,9.11q-2.05,12.67-9.08,20.16a22.57,22.57,0,0,1-17.06,7.48q-9.63,0-14.48-7.8t-2.89-19.84Zm5.33,9.18q-1.55,9.6,1.35,15.66t10.18,6.06q6.76,0,11.84-6.29A32.4,32.4,0,0,0,599,110.49l1.43-9.13q1.5-9.44-1.43-15.52t-10.09-6.09Q582,79.75,577,86a32,32,0,0,0-6.47,15.32Z"/><path class="cls-1" d="M647.51,81l-4.31-.34a11.61,11.61,0,0,0-8,3.41,28.74,28.74,0,0,0-6.4,9.26l-8.65,43.51h-6.77l12.39-62h6l-1.15,9.29.29.17a23.39,23.39,0,0,1,6.71-7.83,14.41,14.41,0,0,1,8.54-2.78,10.86,10.86,0,0,1,2,.2,10.29,10.29,0,0,1,1.6.43Z"/><path class="cls-1" d="M666.14,132.21a14.47,14.47,0,0,0,9.49-3.9,17.16,17.16,0,0,0,5.65-10.78h5.9l.11.35a22.72,22.72,0,0,1-7.76,14.59,21.52,21.52,0,0,1-14.31,5.59q-9.79,0-14.3-7.77t-2.55-19.58l1.54-9.63q2-12.39,8.63-19.9a21.76,21.76,0,0,1,17-7.51,14.85,14.85,0,0,1,12.56,6.14q4.57,6.14,3,16.11h-6.36Q685.92,88.24,683,84a9.61,9.61,0,0,0-8.43-4.24A14.17,14.17,0,0,0,662.7,85.9a33.76,33.76,0,0,0-6,15.22l-1.55,9.66q-1.61,9.7.86,15.57T666.14,132.21Z"/><path class="cls-1" d="M715.62,138.06a16.15,16.15,0,0,1-14.28-7.6q-5-7.59-3.15-19.18L699.85,101Q701.8,88.75,709,81.21t15.88-7.54q9,0,13.19,7t2.35,18.6l-1.09,6.8H705.64l-.8,5.14q-1.5,9.38,1.6,15.19t10.09,5.81a20.34,20.34,0,0,0,8.6-1.82,21.07,21.07,0,0,0,6.88-5.06l2,4.85a23.79,23.79,0,0,1-7.83,5.77A25,25,0,0,1,715.62,138.06Zm8.31-58.31q-5.79,0-10.75,5.91a28.57,28.57,0,0,0-6.28,14.27l.12.29H733.5l.46-2.64q1.21-8-1.34-12.9T723.93,79.75Z"/><path class="cls-4" d="M72.06,172.08c-11.8-.65-19.61-3.76-24.94-5.74-2.45-.9-4.56-2.19-6.88-3.27-1.33-.63-4.86-2.87-6-3.64-.86-.56-3.83-2.7-4.61-3.32-4.19-3.32-4.11-3.24-6.75-7.31-5.36-8.25-5.79-17-1.62-25.66,3.59-7.5,9.93-13.64,17.86-19A120.64,120.64,0,0,1,63.83,91.84a237.81,237.81,0,0,1,32.68-9.49l1.2-.29C84.43,70.19,42.14,53.17,37.45,33.52c8,15.53,25.15,23.35,29.93,26.09,8.47,4.86,13.39,7.19,29.07,15.52A290.47,290.47,0,0,1,123,91.28c5.52,3.75,12.44,8.72,16.65,13.3,4.82,5.24,9.88,11.51,8.63,17.87-1,5-7.59,16-12.86,22.14a77.56,77.56,0,0,1-15.78,14.34c-10.22,7-24.49,12.2-33.85,12.64,23.08-4.59,28.58-10.2,34.05-20.2,1.62-3,5.32-15,3.71-15.51-2.08-.65-27.64.92-44.45,1.21-13.35.22-18.77.17-32.12.29-2.21,0-6.09,0-6,2.93C41.59,164.94,72.06,172.08,72.06,172.08Zm-2.17-39.64c5.56-.1,11.2.19,16.76.1,7.28.07,12-.14,18.22-.25,5.93-.1,12.14.1,18.08,0,.81,0,1.2,0,1.29-.52s.23-2,.23-2.58c0-1.6-.4-1.79-1.31-1.92l-12.48-1.79c-15.88-3.33-26.53-4.92-42.16-8.12-5-1-9.35-2.09-13.25-1.66-.53.06-1.05.15-1.56.24a5.79,5.79,0,0,0-3.48,1.85c-1.77,2.08-6.66,7.8-7.83,10.09a4.41,4.41,0,0,0-.51,1.88c0,1.43,1,2.39,2.93,2.77,1.24.23,2.55.27,3.82.4l0-.1Zm53-13.19c-.73-2.46-.73-2.46-2.23-3C107,112.21,93.42,108.09,79.8,104A35.65,35.65,0,0,0,74.34,103a9.54,9.54,0,0,0-5.68,1.11c-1,.59-2.76,1.39-3.84,2-1.93,1.1-6.38,4.06-4.38,5,1.07.51,8.37,1.71,9.59,2,9.39,1.92,17.88,3.67,27.28,5.55,8.61,1.72,20.23,4.53,25.79,4.91C124.14,123.55,123.13,120.24,122.84,119.25Zm-6.15-14.72a44.52,44.52,0,0,0-8.29-9.17c-1.87-1.66-4.51-2.14-7.34-2.1a34,34,0,0,0-7.92,1.36c-2.51.64-13.66,3.79-12.1,5.39.82.84,10.09,3.15,11.33,3.61,7.15,2.62,17.12,4.81,24.28,7.43l2.47.91c2,.68,1.32.53,1.55.53,1,0-1.06-3-1-3C119.06,108.57,117.33,105.41,116.69,104.53Z"/><path class="cls-5" d="M126.44,41.15c1.76-1.6-15-13.65-15-13.65a75.25,75.25,0,0,1,30.22,27.87c1.49,2.41,1.83,8.34-.16,10.81-4,4.91-12.61,7.51-19.56,9.13-1,.24-.9.53-.09,1.12,0,0,19.67,15.68,25,22.12,2.12,2.57,6,8.1,3.23,18.58,0,0,2.51-5.08-8.71-15.66a138.91,138.91,0,0,0-11.67-9.25,263.19,263.19,0,0,0-24-14.44C95.39,72.09,84.88,66.71,74.3,61.46c-12.43-6.17-25.77-14-33.44-26a33.43,33.43,0,0,1-2.88-6s2.14-1.22,3-1.65c1.31-.68,3-1.51,3-1.51a14.49,14.49,0,0,0,1.65,3c.82,1.18.78,1.2,1.59,2.38C49.11,34.55,125.25,42.23,126.44,41.15ZM54.33,39c0,1.93,11.59,9.08,14.84,9.58,3.87.6,58.58,2.13,60.66-1a2.42,2.42,0,0,0-.57-2.84C128.32,43.7,54.33,36.06,54.33,39Zm76.6,14.29c-.37-2.93-55.79-1-52.67,1.61,4.11,3.43,9.81,4.3,17.21,5.45,12.64,2,25.52,4.13,33.17-2.75C130.36,56,131.22,55.61,130.93,53.24Z"/><path class="cls-3" d="M355,66.45h-18.8v70.46H320V66.45H301.26v-13H355Z"/><path class="cls-1" d="M558.58,98h-31.3l-7.75,38.93h-6.76l16.68-83.48h42.66l-1.2,6.08H535l-6.53,32.4h31.3Z"/><path class="cls-1" d="M702.9,153.25c1.33-1.59,2.4-3.05,3.66-4.35,5.11-5.24,10.66-4.8,15,1.14.69,1,1.36,1.93,2.19,3.13,3.83-5.52,8.83-8.41,15.53-7.71a4.7,4.7,0,0,1,1.72.61c-2.14.54-1.64,2.12-1.65,3.46q0,5.31,0,10.62c0,1.11-.4,2.52,1.67,2.2-.9,1.45-6.29,1.27-9.54,0a17.52,17.52,0,0,1-7.73-6.51c-.82,1.08-1.54,2.05-2.29,3-3,3.8-6.87,5.27-10.49,4a14.55,14.55,0,0,1-6.11-4.6c-.6-.72-1.18-1.46-1.88-2.33-2.89,3.65-5.55,7.46-10.63,7.38s-7.74-3.77-10.66-7.45c-3.24,6-8.16,8.66-14.68,8.3a5.89,5.89,0,0,1-2.4-.83c1.72-.4,1.46-1.6,1.46-2.68q0-6.16,0-12.33c0-1,.1-2-1.38-2.13l0-.39a6.2,6.2,0,0,1,1.34-.55c6.09-1,10.68,1.42,14.28,6.15.4.53.78,1.07,1.3,1.78a21,21,0,0,1,1.89-2.42,33.6,33.6,0,0,1,5.3-4.5c3.26-1.91,6.93-1,10.12,2.12a39.94,39.94,0,0,1,3.06,3.77C702.28,152.43,702.55,152.8,702.9,153.25Zm-12.4,1c0,2.14.06,4.29,0,6.44-.05,1.33.67,1.46,1.7,1.43s1.78.06,1.76-1.35c-.06-4.34-.05-8.68,0-13,0-1.33-.73-1.43-1.75-1.42s-1.75.18-1.71,1.48C690.55,150,690.5,152.1,690.5,154.25Zm24.67,0c0-2.14,0-4.29,0-6.44,0-1-.35-1.49-1.41-1.44s-2-.05-2,1.39q0,6.59,0,13.17c0,1.45,1,1.17,1.92,1.23s1.52-.17,1.48-1.32C715.12,158.61,715.17,156.41,715.17,154.21Zm-45.34.38c0-2.44,0-4.88,0-7.31,0-1-.42-1.43-1.34-1.36s-1.79,0-1.78,1.29q0,7.31,0,14.62c0,1.15.75,1.32,1.62,1.31s1.54-.22,1.51-1.39C669.78,159.36,669.83,157,669.83,154.59Zm68.84-.08c0-2.24,0-4.48,0-6.73,0-1.15-.52-1.47-1.59-1.45s-1.56.32-1.55,1.48q.08,6.58,0,13.18c0,1.19.56,1.41,1.58,1.43s1.58-.32,1.56-1.46C738.64,158.81,738.67,156.66,738.67,154.51Zm-68-.06c0,2.35,0,4.69,0,7a1.46,1.46,0,0,0,.55,1.12,2,2,0,0,0,2.54-1.84c0-3,0-5.93,0-8.89,0-1.34.07-2.68,0-4s-1.35-1.36-2.28-1.46c-1.09-.11-.79.86-.8,1.46C670.69,150.05,670.71,152.25,670.71,154.45ZM734.56,162V146.82c-2.73.22-3,.45-3,3v9.3C731.6,161.54,731.92,161.85,734.56,162Zm-23.51-.51c0-4.69,0-9.21,0-13.72,0-.16-.47-.47-.7-.44a3.71,3.71,0,0,0-2.59,3q0,3.65,0,7.31C707.73,159.94,708.3,160.66,711.05,161.46Zm-16.13,0c2-.2,3-1.2,3-3v-8c0-1.94-.82-2.87-3-3.33Zm21.24-.09c2.13-.36,3-1.36,3-3.29v-7.59c0-1.85-.94-2.91-3-3.35Zm-26.65,0V147.25c-2.09.38-3,1.42-3,3.31,0,2.43,0,4.87,0,7.3C686.49,160,687.23,160.84,689.51,161.33Zm-14.74-13.49V161.3c2.17-.69,2.66-1.28,2.68-3.18,0-2.24,0-4.49,0-6.73C677.46,149.3,677.08,148.78,674.77,147.84Zm56,.4c-2.46.83-2.95,1.48-3,3.64,0,1.92,0,3.83,0,5.74,0,1.62,1.1,2.7,2.95,2.83Zm-31.85,10.18.46.21c.87-1.17,1.76-2.33,2.61-3.51a.81.81,0,0,0,.15-.66c-.91-1.44-1.85-2.86-2.79-4.28l-.43.25Zm-13.89-.08.39-.26v-7.63l-.36-.14c-.84,1.19-1.7,2.36-2.5,3.58a1.05,1.05,0,0,0,0,.93C683.34,156,684.2,157.17,685.05,158.34Zm21.68-7.59-.43-.16c-.79,1.16-1.6,2.32-2.37,3.5a.92.92,0,0,0-.11.79c.8,1.17,1.66,2.31,2.5,3.46l.41-.22Zm13.44,7.45c3.21-2.2,3.17-5.86,0-7.56Zm-41.86-.11.61.24c.66-1.31,1.79-2.6,1.86-4s-1-2.49-2.47-3.47ZM727,151.28c-3.1,2.73-3.23,3.57,0,6.47Z"/><path class="cls-1" d="M633.87,153.54c1.34-1.68,2.43-3.23,3.69-4.6,5.15-5.55,10.74-5.08,15.1,1.2.7,1,1.37,2.05,2.21,3.32,3.86-5.85,8.9-8.91,15.65-8.16a4.54,4.54,0,0,1,1.74.64c-2.16.57-1.66,2.25-1.67,3.67,0,3.74,0,7.49,0,11.23,0,1.18-.41,2.67,1.69,2.33-.91,1.54-6.34,1.34-9.62,0s-5.64-3.78-7.8-6.89c-.82,1.14-1.55,2.17-2.3,3.18-3,4-6.92,5.58-10.58,4.18a14.59,14.59,0,0,1-6.15-4.87c-.61-.76-1.19-1.54-1.9-2.46-2.91,3.87-5.6,7.89-10.71,7.82s-7.81-4-10.75-7.9c-3.26,6.36-8.22,9.17-14.8,8.8a5.79,5.79,0,0,1-2.41-.89c1.73-.42,1.47-1.69,1.47-2.83q0-6.53,0-13.06c0-1,.1-2.09-1.39-2.25l0-.41a6.11,6.11,0,0,1,1.35-.58c6.14-1.12,10.76,1.49,14.4,6.51.4.55.78,1.13,1.3,1.88a21.57,21.57,0,0,1,1.91-2.56,33.61,33.61,0,0,1,5.34-4.76c3.29-2,7-1.09,10.2,2.24a42,42,0,0,1,3.09,4C633.25,152.67,633.52,153.06,633.87,153.54Zm-12.49,1.05c0,2.28.06,4.55,0,6.82-.05,1.42.67,1.54,1.71,1.52s1.79.06,1.77-1.43c-.06-4.6-.05-9.19,0-13.79,0-1.41-.73-1.51-1.76-1.5s-1.76.18-1.72,1.56C621.43,150.05,621.38,152.32,621.38,154.59Zm24.86,0c0-2.27,0-4.55,0-6.82,0-1.09-.35-1.58-1.42-1.53s-2-.05-2,1.47q0,7,0,13.94c0,1.54,1,1.24,1.93,1.3s1.54-.18,1.51-1.39C646.19,159.21,646.24,156.88,646.24,154.56Zm-45.7.39c0-2.58,0-5.16,0-7.73,0-1.08-.42-1.52-1.35-1.44s-1.8,0-1.79,1.36c0,5.16,0,10.32,0,15.48,0,1.22.75,1.4,1.63,1.38s1.55-.23,1.52-1.46C600.49,160,600.54,157.48,600.54,155Zm69.39-.07c0-2.38,0-4.75,0-7.13,0-1.22-.52-1.55-1.59-1.54s-1.58.35-1.57,1.57q.08,7,0,13.95c0,1.27.56,1.49,1.6,1.51s1.59-.33,1.56-1.54C669.89,159.42,669.93,157.15,669.93,154.88Zm-68.5-.07c0,2.48,0,5,0,7.44a1.55,1.55,0,0,0,.56,1.18,2,2,0,0,0,2.56-1.94c0-3.14,0-6.28,0-9.41,0-1.42.07-2.84,0-4.25s-1.36-1.44-2.29-1.54c-1.1-.12-.8.91-.81,1.54C601.4,150.16,601.42,152.48,601.43,154.81Zm64.35,8v-16c-2.75.23-3,.48-3,3.18v9.85C662.8,162.31,663.12,162.65,665.78,162.77Zm-23.69-.54c0-5,0-9.75,0-14.52,0-.17-.48-.5-.71-.47-1.13.13-2.6,2-2.61,3.18q0,3.87,0,7.74C638.74,160.62,639.32,161.39,642.09,162.23Zm-16.26,0c2-.21,3-1.27,3-3.2q0-4.25,0-8.48c0-2.06-.83-3-3-3.53Zm21.4-.09c2.15-.38,3.06-1.45,3.06-3.49q0-4,0-8c0-2-.95-3.08-3.06-3.54Zm-26.85,0v-14.9c-2.11.4-3,1.51-3,3.5v7.73C617.33,160.64,618.08,161.57,620.38,162.09Zm-14.86-14.27v14.24c2.19-.73,2.68-1.35,2.7-3.37,0-2.37,0-4.74,0-7.12C608.23,149.36,607.85,148.81,605.52,147.82Zm56.46.41c-2.48.89-3,1.57-3,3.86q0,3,0,6.07a2.9,2.9,0,0,0,3,3ZM629.88,159l.47.22c.88-1.24,1.77-2.47,2.63-3.72.12-.18.23-.55.14-.69-.91-1.53-1.86-3-2.8-4.53l-.44.26Zm-14-.08.4-.27v-8.09l-.37-.14c-.85,1.25-1.72,2.5-2.52,3.78a1.19,1.19,0,0,0,0,1C614.15,156.47,615,157.69,615.88,158.93Zm21.85-8-.43-.18c-.8,1.24-1.61,2.46-2.39,3.71a1,1,0,0,0-.11.83c.81,1.25,1.67,2.45,2.52,3.66l.41-.23Zm13.55,7.88c3.23-2.33,3.19-6.2,0-8Zm-42.19-.12.61.26c.67-1.39,1.81-2.76,1.88-4.18s-1.06-2.64-2.49-3.67Zm49-7.21c-3.13,2.9-3.26,3.78,0,6.85Z"/><path class="cls-1" d="M564.9,153.61c1.33-1.77,2.41-3.42,3.67-4.87,5.1-5.87,10.65-5.38,15,1.28.7,1.07,1.36,2.16,2.2,3.51,3.82-6.19,8.82-9.44,15.52-8.65a4.41,4.41,0,0,1,1.73.68c-2.14.61-1.65,2.38-1.65,3.89q0,5.94,0,11.9c0,1.24-.41,2.82,1.66,2.47-.89,1.62-6.29,1.41-9.54,0s-5.59-4-7.73-7.29c-.82,1.2-1.54,2.29-2.29,3.36-3,4.26-6.86,5.91-10.49,4.43a14.79,14.79,0,0,1-6.11-5.16c-.59-.8-1.17-1.63-1.87-2.6-2.89,4.09-5.56,8.36-10.63,8.27s-7.75-4.23-10.67-8.36c-3.23,6.74-8.15,9.72-14.68,9.32a5.53,5.53,0,0,1-2.4-.94c1.72-.44,1.46-1.79,1.46-3q0-6.91,0-13.83c0-1.09.1-2.21-1.39-2.38l0-.44a6.44,6.44,0,0,1,1.34-.62c6.09-1.17,10.68,1.59,14.29,6.9.4.59.78,1.2,1.3,2a20.31,20.31,0,0,1,1.89-2.71,34,34,0,0,1,5.3-5.05c3.26-2.14,6.93-1.15,10.11,2.37a45.25,45.25,0,0,1,3.07,4.23C564.29,152.69,564.56,153.1,564.9,153.61Zm-12.39,1.12c0,2.41.06,4.82,0,7.22,0,1.5.66,1.63,1.7,1.61s1.78.06,1.76-1.52c-.06-4.86-.05-9.73,0-14.6,0-1.5-.72-1.6-1.74-1.59s-1.75.19-1.71,1.66C552.56,149.91,552.51,152.32,552.51,154.73Zm24.66,0c0-2.4,0-4.81,0-7.22,0-1.16-.35-1.67-1.41-1.62s-2,0-2,1.56c0,4.92,0,9.84,0,14.77,0,1.62,1,1.31,1.91,1.37s1.52-.19,1.49-1.47C577.13,159.62,577.17,157.15,577.17,154.69Zm-45.34.42c0-2.73,0-5.46,0-8.19,0-1.14-.42-1.61-1.34-1.53s-1.79,0-1.78,1.45c0,5.46,0,10.92,0,16.39,0,1.29.74,1.48,1.62,1.46s1.54-.24,1.5-1.55C531.78,160.47,531.83,157.79,531.83,155.11Zm68.85-.08c0-2.52,0-5,0-7.54,0-1.3-.52-1.65-1.58-1.64s-1.56.37-1.55,1.67q.06,7.38,0,14.76c0,1.35.55,1.59,1.58,1.61s1.58-.35,1.55-1.64C600.64,159.85,600.68,157.44,600.68,155Zm-68-.07c0,2.63,0,5.25,0,7.88a1.69,1.69,0,0,0,.56,1.25c1.11.51,2.53-.68,2.54-2.06,0-3.32,0-6.64,0-10,0-1.5.07-3,0-4.49s-1.35-1.53-2.28-1.64c-1.09-.12-.79,1-.8,1.64C532.69,150,532.71,152.5,532.72,155Zm63.84,8.43v-17c-2.73.25-2.95.52-3,3.37V160.2C593.61,162.9,593.92,163.26,596.56,163.39Zm-23.5-.57c0-5.26,0-10.32,0-15.38,0-.18-.48-.53-.7-.5-1.13.14-2.59,2.07-2.6,3.37,0,2.73,0,5.46,0,8.2S570.31,161.92,573.06,162.82Zm-16.13,0a3,3,0,0,0,3-3.38q0-4.5,0-9c0-2.18-.83-3.22-3-3.74Zm21.23-.09c2.13-.41,3-1.53,3-3.7q0-4.25,0-8.51a3.46,3.46,0,0,0-3-3.75Zm-26.64-.05V146.89a3.35,3.35,0,0,0-3,3.71v8.18C548.49,161.13,549.24,162.12,551.52,162.67Zm-14.75-15.12v15.09c2.18-.78,2.67-1.43,2.69-3.57,0-2.51,0-5,0-7.54C539.46,149.19,539.08,148.61,536.77,147.55Zm56,.44c-2.46.94-2.95,1.67-2.95,4.09,0,2.14,0,4.29,0,6.43a3,3,0,0,0,2.95,3.17ZM561,159.41l.46.23c.87-1.31,1.75-2.61,2.6-3.94a.93.93,0,0,0,.15-.73c-.9-1.62-1.85-3.21-2.78-4.8l-.43.28Zm-13.9-.09.4-.29v-8.56l-.37-.15c-.84,1.33-1.7,2.64-2.5,4a1.3,1.3,0,0,0,0,1C545.34,156.72,546.21,158,547.05,159.32Zm21.68-8.5-.43-.19c-.79,1.31-1.6,2.6-2.36,3.92a1.16,1.16,0,0,0-.12.89c.8,1.32,1.66,2.59,2.51,3.88l.4-.25Zm13.44,8.34c3.21-2.47,3.17-6.56,0-8.47ZM540.31,159l.61.27c.67-1.47,1.8-2.92,1.86-4.43s-1-2.79-2.47-3.89ZM589,151.4c-3.1,3.07-3.23,4,0,7.26Z"/><path class="cls-1" d="M495.88,153.94c1.34-1.88,2.42-3.63,3.69-5.16,5.15-6.22,10.74-5.7,15.09,1.35.71,1.13,1.37,2.29,2.22,3.71,3.85-6.55,8.89-10,15.64-9.14a4.25,4.25,0,0,1,1.74.71c-2.15.65-1.66,2.53-1.66,4.12q0,6.3,0,12.59c0,1.32-.41,3,1.68,2.62-.9,1.72-6.34,1.5-9.62,0s-5.64-4.24-7.79-7.72c-.82,1.27-1.55,2.43-2.31,3.56-3,4.5-6.92,6.25-10.57,4.69a15.1,15.1,0,0,1-6.16-5.46c-.6-.85-1.18-1.72-1.89-2.76-2.91,4.33-5.6,8.85-10.71,8.76s-7.81-4.48-10.76-8.85c-3.26,7.14-8.21,10.28-14.79,9.86a5.33,5.33,0,0,1-2.42-1c1.73-.47,1.47-1.9,1.47-3.18V148c0-1.16.11-2.35-1.39-2.52l0-.47a6,6,0,0,1,1.35-.65c6.14-1.25,10.77,1.68,14.4,7.3.41.62.79,1.26,1.31,2.11a23,23,0,0,1,1.91-2.87,35,35,0,0,1,5.34-5.34c3.28-2.27,7-1.22,10.2,2.51a49.68,49.68,0,0,1,3.08,4.47C495.25,153,495.53,153.4,495.88,153.94Zm-12.5,1.18c0,2.55.06,5.1,0,7.64-.05,1.59.67,1.73,1.72,1.71s1.79.06,1.77-1.61c-.06-5.15-.05-10.3,0-15.46,0-1.58-.73-1.69-1.75-1.68s-1.77.2-1.73,1.76C483.43,150,483.38,152.57,483.38,155.12Zm24.86,0c0-2.55,0-5.1,0-7.64,0-1.23-.35-1.78-1.42-1.72s-2-.06-2,1.65q0,7.81,0,15.63c0,1.72,1,1.39,1.93,1.46s1.53-.2,1.5-1.57C508.19,160.29,508.24,157.69,508.24,155.08Zm-45.7.44c0-2.89,0-5.78,0-8.67,0-1.2-.43-1.7-1.36-1.61s-1.8-.05-1.79,1.53q0,8.67,0,17.34c0,1.37.75,1.57,1.63,1.56s1.56-.26,1.52-1.65C462.49,161.19,462.54,158.36,462.54,155.52Zm69.39-.08c0-2.67,0-5.33,0-8,0-1.37-.53-1.74-1.6-1.73s-1.57.39-1.56,1.77q.06,7.81,0,15.63c0,1.42.56,1.67,1.59,1.69s1.6-.37,1.57-1.73C531.9,160.53,531.93,158,531.93,155.44Zm-68.5-.08c0,2.78,0,5.56,0,8.34A1.85,1.85,0,0,0,464,165c1.12.54,2.55-.72,2.56-2.18,0-3.52,0-7,0-10.55,0-1.59.07-3.19,0-4.76s-1.36-1.62-2.3-1.73c-1.1-.13-.8,1-.81,1.73C463.41,150.15,463.43,152.76,463.43,155.36Zm64.36,8.93v-18c-2.76.27-3,.55-3,3.56q0,5.53,0,11C524.81,163.77,525.13,164.15,527.79,164.29Zm-23.69-.61c0-5.57,0-10.92,0-16.28,0-.19-.47-.56-.7-.53-1.14.15-2.61,2.2-2.62,3.57,0,2.89,0,5.79,0,8.68S501.32,162.73,504.1,163.68Zm-16.26,0c2.05-.23,3-1.42,3.05-3.58v-9.51c0-2.3-.83-3.4-3.05-4Zm21.4-.1c2.15-.42,3-1.62,3.06-3.91v-9a3.62,3.62,0,0,0-3.06-4Zm-26.86,0v-16.7c-2.1.45-3,1.69-3.05,3.93v8.66C479.33,161.9,480.09,162.94,482.38,163.52Zm-14.86-16v16c2.19-.82,2.69-1.52,2.71-3.77,0-2.67,0-5.33,0-8C470.23,149.25,469.85,148.64,467.52,147.52ZM524,148c-2.47,1-3,1.76-3,4.33,0,2.26,0,4.53,0,6.8a3.11,3.11,0,0,0,3,3.36Zm-32.09,12.08.46.25c.88-1.39,1.77-2.77,2.63-4.17a1,1,0,0,0,.15-.78c-.91-1.71-1.87-3.39-2.81-5.08l-.43.3Zm-14-.09.4-.31v-9.06l-.37-.16c-.84,1.41-1.71,2.8-2.51,4.24a1.43,1.43,0,0,0,0,1.11C476.16,157.22,477,158.59,477.88,160Zm21.85-9-.43-.2c-.79,1.38-1.61,2.75-2.38,4.15a1.28,1.28,0,0,0-.12.94c.81,1.39,1.68,2.74,2.53,4.1l.4-.25Zm13.55,8.83c3.24-2.61,3.2-6.95,0-9Zm-42.19-.13.61.29c.67-1.56,1.81-3.09,1.88-4.69s-1.06-3-2.49-4.12Zm49-8.08c-3.12,3.24-3.25,4.23,0,7.67Z"/></svg>